<mxfile host="app.diagrams.net" agent="Mozilla/5.0 (X11; Linux x86_64; rv:134.0) Gecko/20100101 Firefox/134.0" version="26.0.7">
  <diagram name="Page-1" id="cmUzDiKMSTbd_cNTvIq2">
    <mxGraphModel dx="619" dy="459" grid="1" gridSize="10" guides="1" tooltips="1" connect="1" arrows="1" fold="1" page="1" pageScale="1" pageWidth="850" pageHeight="1100" math="1" shadow="0">
      <root>
        <mxCell id="0" />
        <mxCell id="1" parent="0" />
        <mxCell id="XLCITQfvv2XQwye32638-106" value="" style="endArrow=none;html=1;rounded=0;fillColor=#f5f5f5;strokeColor=#666666;" edge="1" parent="1">
          <mxGeometry width="50" height="50" relative="1" as="geometry">
            <mxPoint x="709.5" y="269.31" as="sourcePoint" />
            <mxPoint x="709.5" y="259.31" as="targetPoint" />
          </mxGeometry>
        </mxCell>
        <mxCell id="XLCITQfvv2XQwye32638-26" value="" style="shape=flexArrow;endArrow=classic;html=1;rounded=0;fillColor=default;" edge="1" parent="1">
          <mxGeometry width="50" height="50" relative="1" as="geometry">
            <mxPoint x="200" y="150" as="sourcePoint" />
            <mxPoint x="200" y="190" as="targetPoint" />
          </mxGeometry>
        </mxCell>
        <mxCell id="XLCITQfvv2XQwye32638-27" value="$$2$$" style="ellipse;whiteSpace=wrap;html=1;aspect=fixed;fillColor=#dae8fc;strokeColor=#6c8ebf;" vertex="1" parent="1">
          <mxGeometry x="220" y="170" width="20" height="20" as="geometry" />
        </mxCell>
        <mxCell id="XLCITQfvv2XQwye32638-4" value="" style="rounded=0;whiteSpace=wrap;html=1;" vertex="1" parent="1">
          <mxGeometry x="160" y="60" width="80" height="20" as="geometry" />
        </mxCell>
        <mxCell id="XLCITQfvv2XQwye32638-8" value="" style="rounded=0;whiteSpace=wrap;html=1;" vertex="1" parent="1">
          <mxGeometry x="240" y="60" width="80" height="20" as="geometry" />
        </mxCell>
        <mxCell id="XLCITQfvv2XQwye32638-9" value="" style="rounded=0;whiteSpace=wrap;html=1;" vertex="1" parent="1">
          <mxGeometry x="320" y="60" width="80" height="20" as="geometry" />
        </mxCell>
        <mxCell id="XLCITQfvv2XQwye32638-10" value="" style="rounded=0;whiteSpace=wrap;html=1;" vertex="1" parent="1">
          <mxGeometry x="400" y="60" width="80" height="20" as="geometry" />
        </mxCell>
        <mxCell id="XLCITQfvv2XQwye32638-11" value="" style="rounded=0;whiteSpace=wrap;html=1;" vertex="1" parent="1">
          <mxGeometry x="480" y="60" width="80" height="20" as="geometry" />
        </mxCell>
        <mxCell id="XLCITQfvv2XQwye32638-12" value="" style="rounded=0;whiteSpace=wrap;html=1;" vertex="1" parent="1">
          <mxGeometry x="560" y="60" width="80" height="20" as="geometry" />
        </mxCell>
        <mxCell id="XLCITQfvv2XQwye32638-13" value="" style="rounded=0;whiteSpace=wrap;html=1;" vertex="1" parent="1">
          <mxGeometry x="640" y="60" width="80" height="20" as="geometry" />
        </mxCell>
        <mxCell id="XLCITQfvv2XQwye32638-14" value="$$Interval$$" style="endArrow=classic;startArrow=classic;html=1;rounded=0;" edge="1" parent="1">
          <mxGeometry width="50" height="50" relative="1" as="geometry">
            <mxPoint x="160" y="100" as="sourcePoint" />
            <mxPoint x="240" y="100" as="targetPoint" />
          </mxGeometry>
        </mxCell>
        <mxCell id="XLCITQfvv2XQwye32638-17" value="$$BBV$$" style="shape=parallelogram;perimeter=parallelogramPerimeter;whiteSpace=wrap;html=1;fixedSize=1;" vertex="1" parent="1">
          <mxGeometry x="165" y="120" width="70" height="40" as="geometry" />
        </mxCell>
        <mxCell id="XLCITQfvv2XQwye32638-18" value="$$BBV$$" style="shape=parallelogram;perimeter=parallelogramPerimeter;whiteSpace=wrap;html=1;fixedSize=1;" vertex="1" parent="1">
          <mxGeometry x="245" y="120" width="70" height="40" as="geometry" />
        </mxCell>
        <mxCell id="XLCITQfvv2XQwye32638-19" value="$$BBV$$" style="shape=parallelogram;perimeter=parallelogramPerimeter;whiteSpace=wrap;html=1;fixedSize=1;" vertex="1" parent="1">
          <mxGeometry x="325" y="120" width="70" height="40" as="geometry" />
        </mxCell>
        <mxCell id="XLCITQfvv2XQwye32638-20" value="$$BBV$$" style="shape=parallelogram;perimeter=parallelogramPerimeter;whiteSpace=wrap;html=1;fixedSize=1;" vertex="1" parent="1">
          <mxGeometry x="400" y="120" width="70" height="40" as="geometry" />
        </mxCell>
        <mxCell id="XLCITQfvv2XQwye32638-15" value="" style="shape=flexArrow;endArrow=classic;html=1;rounded=0;fillColor=default;" edge="1" parent="1">
          <mxGeometry width="50" height="50" relative="1" as="geometry">
            <mxPoint x="440" y="90" as="sourcePoint" />
            <mxPoint x="440" y="130" as="targetPoint" />
          </mxGeometry>
        </mxCell>
        <mxCell id="XLCITQfvv2XQwye32638-21" value="$$BBV$$" style="shape=parallelogram;perimeter=parallelogramPerimeter;whiteSpace=wrap;html=1;fixedSize=1;" vertex="1" parent="1">
          <mxGeometry x="485" y="120" width="70" height="40" as="geometry" />
        </mxCell>
        <mxCell id="XLCITQfvv2XQwye32638-22" value="$$BBV$$" style="shape=parallelogram;perimeter=parallelogramPerimeter;whiteSpace=wrap;html=1;fixedSize=1;" vertex="1" parent="1">
          <mxGeometry x="565" y="120" width="70" height="40" as="geometry" />
        </mxCell>
        <mxCell id="XLCITQfvv2XQwye32638-23" value="$$BBV$$" style="shape=parallelogram;perimeter=parallelogramPerimeter;whiteSpace=wrap;html=1;fixedSize=1;" vertex="1" parent="1">
          <mxGeometry x="645" y="120" width="70" height="40" as="geometry" />
        </mxCell>
        <mxCell id="XLCITQfvv2XQwye32638-24" value="$$1$$" style="ellipse;whiteSpace=wrap;html=1;aspect=fixed;fillColor=#dae8fc;strokeColor=#6c8ebf;" vertex="1" parent="1">
          <mxGeometry x="460" y="90" width="20" height="20" as="geometry" />
        </mxCell>
        <mxCell id="XLCITQfvv2XQwye32638-29" value="" style="endArrow=none;dashed=1;html=1;rounded=0;" edge="1" parent="1">
          <mxGeometry width="50" height="50" relative="1" as="geometry">
            <mxPoint x="200" y="280" as="sourcePoint" />
            <mxPoint x="200" y="200" as="targetPoint" />
          </mxGeometry>
        </mxCell>
        <mxCell id="XLCITQfvv2XQwye32638-30" value="" style="endArrow=none;dashed=1;html=1;rounded=0;" edge="1" parent="1">
          <mxGeometry width="50" height="50" relative="1" as="geometry">
            <mxPoint x="200" y="280" as="sourcePoint" />
            <mxPoint x="160" y="320" as="targetPoint" />
          </mxGeometry>
        </mxCell>
        <mxCell id="XLCITQfvv2XQwye32638-31" value="" style="endArrow=none;dashed=1;html=1;rounded=0;" edge="1" parent="1">
          <mxGeometry width="50" height="50" relative="1" as="geometry">
            <mxPoint x="200" y="280" as="sourcePoint" />
            <mxPoint x="260" y="330" as="targetPoint" />
          </mxGeometry>
        </mxCell>
        <mxCell id="XLCITQfvv2XQwye32638-32" value="" style="endArrow=none;dashed=1;html=1;rounded=0;" edge="1" parent="1">
          <mxGeometry width="50" height="50" relative="1" as="geometry">
            <mxPoint x="200" y="280" as="sourcePoint" />
            <mxPoint x="140" y="270" as="targetPoint" />
          </mxGeometry>
        </mxCell>
        <mxCell id="XLCITQfvv2XQwye32638-33" value="" style="endArrow=none;dashed=1;html=1;rounded=0;" edge="1" parent="1">
          <mxGeometry width="50" height="50" relative="1" as="geometry">
            <mxPoint x="250" y="250" as="sourcePoint" />
            <mxPoint x="200" y="280" as="targetPoint" />
          </mxGeometry>
        </mxCell>
        <mxCell id="XLCITQfvv2XQwye32638-34" value="" style="ellipse;whiteSpace=wrap;html=1;strokeColor=none;fillColor=#000000;" vertex="1" parent="1">
          <mxGeometry x="175" y="210" width="5" height="5" as="geometry" />
        </mxCell>
        <mxCell id="XLCITQfvv2XQwye32638-37" value="" style="ellipse;whiteSpace=wrap;html=1;strokeColor=none;fillColor=#000000;" vertex="1" parent="1">
          <mxGeometry x="165" y="300" width="5" height="5" as="geometry" />
        </mxCell>
        <mxCell id="XLCITQfvv2XQwye32638-38" value="" style="ellipse;whiteSpace=wrap;html=1;strokeColor=none;fillColor=#000000;" vertex="1" parent="1">
          <mxGeometry x="160" y="250" width="5" height="5" as="geometry" />
        </mxCell>
        <mxCell id="XLCITQfvv2XQwye32638-39" value="" style="ellipse;whiteSpace=wrap;html=1;strokeColor=none;fillColor=#000000;" vertex="1" parent="1">
          <mxGeometry x="210" y="215" width="5" height="5" as="geometry" />
        </mxCell>
        <mxCell id="XLCITQfvv2XQwye32638-40" value="" style="ellipse;whiteSpace=wrap;html=1;strokeColor=none;fillColor=#000000;" vertex="1" parent="1">
          <mxGeometry x="215" y="230" width="5" height="5" as="geometry" />
        </mxCell>
        <mxCell id="XLCITQfvv2XQwye32638-41" value="" style="ellipse;whiteSpace=wrap;html=1;strokeColor=none;fillColor=#000000;" vertex="1" parent="1">
          <mxGeometry x="210" y="300" width="5" height="5" as="geometry" />
        </mxCell>
        <mxCell id="XLCITQfvv2XQwye32638-42" value="" style="ellipse;whiteSpace=wrap;html=1;strokeColor=none;fillColor=#000000;" vertex="1" parent="1">
          <mxGeometry x="215" y="280" width="5" height="5" as="geometry" />
        </mxCell>
        <mxCell id="XLCITQfvv2XQwye32638-45" value="" style="endArrow=none;dashed=1;html=1;rounded=0;" edge="1" parent="1">
          <mxGeometry width="50" height="50" relative="1" as="geometry">
            <mxPoint x="368" y="280" as="sourcePoint" />
            <mxPoint x="368" y="200" as="targetPoint" />
          </mxGeometry>
        </mxCell>
        <mxCell id="XLCITQfvv2XQwye32638-46" value="" style="endArrow=none;dashed=1;html=1;rounded=0;" edge="1" parent="1">
          <mxGeometry width="50" height="50" relative="1" as="geometry">
            <mxPoint x="428" y="320" as="sourcePoint" />
            <mxPoint x="368" y="280" as="targetPoint" />
          </mxGeometry>
        </mxCell>
        <mxCell id="XLCITQfvv2XQwye32638-48" value="" style="endArrow=classic;html=1;rounded=0;" edge="1" parent="1">
          <mxGeometry width="50" height="50" relative="1" as="geometry">
            <mxPoint x="288" y="218" as="sourcePoint" />
            <mxPoint x="388" y="218" as="targetPoint" />
          </mxGeometry>
        </mxCell>
        <mxCell id="XLCITQfvv2XQwye32638-49" value="" style="endArrow=classic;html=1;rounded=0;" edge="1" parent="1">
          <mxGeometry width="50" height="50" relative="1" as="geometry">
            <mxPoint x="299" y="211.6" as="sourcePoint" />
            <mxPoint x="399" y="211.6" as="targetPoint" />
          </mxGeometry>
        </mxCell>
        <mxCell id="XLCITQfvv2XQwye32638-50" value="" style="endArrow=classic;html=1;rounded=0;" edge="1" parent="1">
          <mxGeometry width="50" height="50" relative="1" as="geometry">
            <mxPoint x="293" y="232.29999999999998" as="sourcePoint" />
            <mxPoint x="393" y="232.29999999999998" as="targetPoint" />
          </mxGeometry>
        </mxCell>
        <mxCell id="XLCITQfvv2XQwye32638-51" value="" style="endArrow=classic;html=1;rounded=0;" edge="1" parent="1">
          <mxGeometry width="50" height="50" relative="1" as="geometry">
            <mxPoint x="280" y="251.29999999999995" as="sourcePoint" />
            <mxPoint x="380" y="251.29999999999995" as="targetPoint" />
          </mxGeometry>
        </mxCell>
        <mxCell id="XLCITQfvv2XQwye32638-52" value="" style="endArrow=classic;html=1;rounded=0;" edge="1" parent="1">
          <mxGeometry width="50" height="50" relative="1" as="geometry">
            <mxPoint x="309" y="282.28" as="sourcePoint" />
            <mxPoint x="409" y="282.28" as="targetPoint" />
          </mxGeometry>
        </mxCell>
        <mxCell id="XLCITQfvv2XQwye32638-53" value="" style="endArrow=classic;html=1;rounded=0;" edge="1" parent="1">
          <mxGeometry width="50" height="50" relative="1" as="geometry">
            <mxPoint x="315" y="301.28" as="sourcePoint" />
            <mxPoint x="415" y="301.28" as="targetPoint" />
          </mxGeometry>
        </mxCell>
        <mxCell id="XLCITQfvv2XQwye32638-54" value="" style="endArrow=classic;html=1;rounded=0;" edge="1" parent="1">
          <mxGeometry width="50" height="50" relative="1" as="geometry">
            <mxPoint x="326" y="304.28" as="sourcePoint" />
            <mxPoint x="426" y="304.28" as="targetPoint" />
          </mxGeometry>
        </mxCell>
        <mxCell id="XLCITQfvv2XQwye32638-55" value="" style="shape=flexArrow;endArrow=classic;html=1;rounded=0;fillColor=default;" edge="1" parent="1">
          <mxGeometry width="50" height="50" relative="1" as="geometry">
            <mxPoint x="302.99564102564113" y="239.99999999999977" as="sourcePoint" />
            <mxPoint x="343" y="240" as="targetPoint" />
          </mxGeometry>
        </mxCell>
        <mxCell id="XLCITQfvv2XQwye32638-56" value="$$3$$" style="ellipse;whiteSpace=wrap;html=1;aspect=fixed;fillColor=#dae8fc;strokeColor=#6c8ebf;" vertex="1" parent="1">
          <mxGeometry x="293" y="240" width="20" height="20" as="geometry" />
        </mxCell>
        <mxCell id="XLCITQfvv2XQwye32638-58" value="" style="endArrow=none;dashed=1;html=1;rounded=0;" edge="1" parent="1">
          <mxGeometry width="50" height="50" relative="1" as="geometry">
            <mxPoint x="487.73" y="280" as="sourcePoint" />
            <mxPoint x="487.73" y="200" as="targetPoint" />
          </mxGeometry>
        </mxCell>
        <mxCell id="XLCITQfvv2XQwye32638-59" value="" style="endArrow=none;dashed=1;html=1;rounded=0;" edge="1" parent="1">
          <mxGeometry width="50" height="50" relative="1" as="geometry">
            <mxPoint x="568" y="280" as="sourcePoint" />
            <mxPoint x="488" y="280" as="targetPoint" />
          </mxGeometry>
        </mxCell>
        <mxCell id="XLCITQfvv2XQwye32638-60" value="" style="ellipse;whiteSpace=wrap;html=1;strokeColor=#82b366;fillColor=#d5e8d4;" vertex="1" parent="1">
          <mxGeometry x="515" y="208" width="5" height="5" as="geometry" />
        </mxCell>
        <mxCell id="XLCITQfvv2XQwye32638-61" value="" style="ellipse;whiteSpace=wrap;html=1;strokeColor=#82b366;fillColor=#d5e8d4;" vertex="1" parent="1">
          <mxGeometry x="503" y="215" width="5" height="5" as="geometry" />
        </mxCell>
        <mxCell id="XLCITQfvv2XQwye32638-62" value="" style="ellipse;whiteSpace=wrap;html=1;strokeColor=#82b366;fillColor=#d5e8d4;" vertex="1" parent="1">
          <mxGeometry x="518" y="225" width="5" height="5" as="geometry" />
        </mxCell>
        <mxCell id="XLCITQfvv2XQwye32638-63" value="" style="ellipse;whiteSpace=wrap;html=1;strokeColor=#82b366;fillColor=#d5e8d4;" vertex="1" parent="1">
          <mxGeometry x="503" y="245" width="5" height="5" as="geometry" />
        </mxCell>
        <mxCell id="XLCITQfvv2XQwye32638-64" value="" style="ellipse;whiteSpace=wrap;html=1;strokeColor=#b85450;fillColor=#f8cecc;" vertex="1" parent="1">
          <mxGeometry x="544" y="258" width="5" height="5" as="geometry" />
        </mxCell>
        <mxCell id="XLCITQfvv2XQwye32638-65" value="" style="ellipse;whiteSpace=wrap;html=1;strokeColor=#b85450;fillColor=#f8cecc;" vertex="1" parent="1">
          <mxGeometry x="555" y="270" width="5" height="5" as="geometry" />
        </mxCell>
        <mxCell id="XLCITQfvv2XQwye32638-66" value="" style="ellipse;whiteSpace=wrap;html=1;strokeColor=#b85450;fillColor=#f8cecc;" vertex="1" parent="1">
          <mxGeometry x="563" y="268" width="5" height="5" as="geometry" />
        </mxCell>
        <mxCell id="XLCITQfvv2XQwye32638-69" value="" style="endArrow=none;html=1;rounded=0;fillColor=#d5e8d4;strokeColor=#82b366;" edge="1" parent="1">
          <mxGeometry width="50" height="50" relative="1" as="geometry">
            <mxPoint x="515" y="227.5" as="sourcePoint" />
            <mxPoint x="505" y="227.5" as="targetPoint" />
          </mxGeometry>
        </mxCell>
        <mxCell id="XLCITQfvv2XQwye32638-70" value="" style="endArrow=none;html=1;rounded=0;fillColor=#d5e8d4;strokeColor=#82b366;" edge="1" parent="1">
          <mxGeometry width="50" height="50" relative="1" as="geometry">
            <mxPoint x="510" y="232.5" as="sourcePoint" />
            <mxPoint x="510" y="222.5" as="targetPoint" />
          </mxGeometry>
        </mxCell>
        <mxCell id="XLCITQfvv2XQwye32638-71" value="" style="endArrow=none;html=1;rounded=0;fillColor=#f8cecc;strokeColor=#b85450;" edge="1" parent="1">
          <mxGeometry width="50" height="50" relative="1" as="geometry">
            <mxPoint x="557.5" y="270" as="sourcePoint" />
            <mxPoint x="557.5" y="260" as="targetPoint" />
          </mxGeometry>
        </mxCell>
        <mxCell id="XLCITQfvv2XQwye32638-72" value="" style="endArrow=none;html=1;rounded=0;fillColor=#f8cecc;strokeColor=#b85450;" edge="1" parent="1">
          <mxGeometry width="50" height="50" relative="1" as="geometry">
            <mxPoint x="562.5" y="265" as="sourcePoint" />
            <mxPoint x="552.5" y="265" as="targetPoint" />
          </mxGeometry>
        </mxCell>
        <mxCell id="XLCITQfvv2XQwye32638-73" value="" style="endArrow=none;dashed=1;html=1;dashPattern=1 3;strokeWidth=2;rounded=0;" edge="1" parent="1">
          <mxGeometry width="50" height="50" relative="1" as="geometry">
            <mxPoint x="518" y="270" as="sourcePoint" />
            <mxPoint x="560" y="210" as="targetPoint" />
          </mxGeometry>
        </mxCell>
        <mxCell id="XLCITQfvv2XQwye32638-77" value="" style="shape=flexArrow;endArrow=classic;html=1;rounded=0;fillColor=default;" edge="1" parent="1">
          <mxGeometry width="50" height="50" relative="1" as="geometry">
            <mxPoint x="432.99564102564113" y="239.99999999999977" as="sourcePoint" />
            <mxPoint x="473" y="240" as="targetPoint" />
          </mxGeometry>
        </mxCell>
        <mxCell id="XLCITQfvv2XQwye32638-78" value="$$4$$" style="ellipse;whiteSpace=wrap;html=1;aspect=fixed;fillColor=#dae8fc;strokeColor=#6c8ebf;" vertex="1" parent="1">
          <mxGeometry x="423" y="240" width="20" height="20" as="geometry" />
        </mxCell>
        <mxCell id="XLCITQfvv2XQwye32638-95" value="" style="endArrow=none;dashed=1;html=1;rounded=0;" edge="1" parent="1">
          <mxGeometry width="50" height="50" relative="1" as="geometry">
            <mxPoint x="639.73" y="279.31" as="sourcePoint" />
            <mxPoint x="639.73" y="199.31" as="targetPoint" />
          </mxGeometry>
        </mxCell>
        <mxCell id="XLCITQfvv2XQwye32638-96" value="" style="endArrow=none;dashed=1;html=1;rounded=0;" edge="1" parent="1">
          <mxGeometry width="50" height="50" relative="1" as="geometry">
            <mxPoint x="720" y="279.31" as="sourcePoint" />
            <mxPoint x="640" y="279.31" as="targetPoint" />
          </mxGeometry>
        </mxCell>
        <mxCell id="XLCITQfvv2XQwye32638-97" value="" style="ellipse;whiteSpace=wrap;html=1;strokeColor=#666666;fillColor=#f5f5f5;fontColor=#333333;" vertex="1" parent="1">
          <mxGeometry x="667" y="207.31" width="5" height="5" as="geometry" />
        </mxCell>
        <mxCell id="XLCITQfvv2XQwye32638-98" value="" style="ellipse;whiteSpace=wrap;html=1;strokeColor=#82b366;fillColor=#d5e8d4;" vertex="1" parent="1">
          <mxGeometry x="655" y="214.31" width="5" height="5" as="geometry" />
        </mxCell>
        <mxCell id="XLCITQfvv2XQwye32638-99" value="" style="ellipse;whiteSpace=wrap;html=1;strokeColor=#666666;fillColor=#f5f5f5;fontColor=#333333;" vertex="1" parent="1">
          <mxGeometry x="670" y="224.31" width="5" height="5" as="geometry" />
        </mxCell>
        <mxCell id="XLCITQfvv2XQwye32638-100" value="" style="ellipse;whiteSpace=wrap;html=1;strokeColor=#666666;fillColor=#f5f5f5;fontColor=#333333;" vertex="1" parent="1">
          <mxGeometry x="655" y="244.31" width="5" height="5" as="geometry" />
        </mxCell>
        <mxCell id="XLCITQfvv2XQwye32638-101" value="" style="ellipse;whiteSpace=wrap;html=1;strokeColor=#666666;fillColor=#f5f5f5;fontColor=#333333;" vertex="1" parent="1">
          <mxGeometry x="696" y="257.31" width="5" height="5" as="geometry" />
        </mxCell>
        <mxCell id="XLCITQfvv2XQwye32638-102" value="" style="ellipse;whiteSpace=wrap;html=1;strokeColor=#b85450;fillColor=#f8cecc;" vertex="1" parent="1">
          <mxGeometry x="707" y="269.31" width="5" height="5" as="geometry" />
        </mxCell>
        <mxCell id="XLCITQfvv2XQwye32638-103" value="" style="ellipse;whiteSpace=wrap;html=1;strokeColor=#666666;fillColor=#f5f5f5;fontColor=#333333;" vertex="1" parent="1">
          <mxGeometry x="715" y="267.31" width="5" height="5" as="geometry" />
        </mxCell>
        <mxCell id="XLCITQfvv2XQwye32638-104" value="" style="endArrow=none;html=1;rounded=0;fillColor=#f5f5f5;strokeColor=#666666;" edge="1" parent="1">
          <mxGeometry width="50" height="50" relative="1" as="geometry">
            <mxPoint x="667" y="226.81" as="sourcePoint" />
            <mxPoint x="657" y="226.81" as="targetPoint" />
          </mxGeometry>
        </mxCell>
        <mxCell id="XLCITQfvv2XQwye32638-105" value="" style="endArrow=none;html=1;rounded=0;fillColor=#f5f5f5;strokeColor=#666666;" edge="1" parent="1">
          <mxGeometry width="50" height="50" relative="1" as="geometry">
            <mxPoint x="662" y="231.81" as="sourcePoint" />
            <mxPoint x="662" y="221.81" as="targetPoint" />
          </mxGeometry>
        </mxCell>
        <mxCell id="XLCITQfvv2XQwye32638-107" value="" style="endArrow=none;html=1;rounded=0;fillColor=#f5f5f5;strokeColor=#666666;" edge="1" parent="1">
          <mxGeometry width="50" height="50" relative="1" as="geometry">
            <mxPoint x="714.5" y="264.31" as="sourcePoint" />
            <mxPoint x="704.5" y="264.31" as="targetPoint" />
          </mxGeometry>
        </mxCell>
        <mxCell id="XLCITQfvv2XQwye32638-108" value="" style="endArrow=none;dashed=1;html=1;dashPattern=1 3;strokeWidth=2;rounded=0;" edge="1" parent="1">
          <mxGeometry width="50" height="50" relative="1" as="geometry">
            <mxPoint x="670" y="269.31" as="sourcePoint" />
            <mxPoint x="712" y="209.31" as="targetPoint" />
          </mxGeometry>
        </mxCell>
        <mxCell id="XLCITQfvv2XQwye32638-109" value="" style="shape=flexArrow;endArrow=classic;html=1;rounded=0;fillColor=default;" edge="1" parent="1">
          <mxGeometry width="50" height="50" relative="1" as="geometry">
            <mxPoint x="584.9956410256411" y="239.30999999999977" as="sourcePoint" />
            <mxPoint x="625" y="239.31" as="targetPoint" />
          </mxGeometry>
        </mxCell>
        <mxCell id="XLCITQfvv2XQwye32638-110" value="$$5$$" style="ellipse;whiteSpace=wrap;html=1;aspect=fixed;fillColor=#dae8fc;strokeColor=#6c8ebf;" vertex="1" parent="1">
          <mxGeometry x="575" y="239.31" width="20" height="20" as="geometry" />
        </mxCell>
      </root>
    </mxGraphModel>
  </diagram>
</mxfile>
